<svg xmlns="http://www.w3.org/2000/svg" xmlns:xlink="http://www.w3.org/1999/xlink" width="500" zoomAndPan="magnify" viewBox="0 0 375 374.999991" height="500" preserveAspectRatio="xMidYMid meet" version="1.0"><defs><g/></defs><g fill="#ffffff" fill-opacity="1"><g transform="translate(27.452343, 175.499988)"><g><path d="M 17.65625 -18.984375 C 17.65625 -18.546875 17.554688 -18.273438 17.359375 -18.171875 C 17.160156 -18.078125 17.003906 -18.03125 16.890625 -18.03125 L 10.03125 -18.03125 L 10.03125 -17.234375 L 16.5625 -17.234375 L 16.5625 -16.59375 L 10.5625 -16.59375 L 10.5625 -12.828125 L 11.46875 -12.828125 L 11.46875 -10.875 L 12.296875 -10.875 L 12.296875 -7.953125 L 11.46875 -7.953125 L 11.46875 -7.3125 L 10.5625 -7.3125 L 10.5625 -5.390625 L 11.46875 -5.390625 L 11.46875 -0.90625 C 11.46875 -0.5 11.375 -0.242188 11.1875 -0.140625 C 11 -0.046875 10.851562 0 10.75 0 L 9.765625 0 C 9.640625 0 9.484375 -0.046875 9.296875 -0.140625 C 9.109375 -0.242188 9.015625 -0.5 9.015625 -0.90625 L 9.015625 -1.578125 L 5.875 -1.578125 L 5.875 -3.46875 L 8.140625 -3.46875 L 8.140625 -5.390625 L 7.515625 -5.390625 L 7.515625 -7.3125 L 8.140625 -7.3125 L 8.140625 -7.953125 L 6.03125 -7.953125 L 6.03125 -10.875 L 8.140625 -10.875 L 8.140625 -12.828125 L 7.515625 -12.828125 L 7.515625 -16.59375 L 9.015625 -16.59375 L 9.015625 -17.234375 L 7.515625 -17.234375 L 7.515625 -18.03125 L 0.671875 -18.03125 C 0.554688 -18.03125 0.394531 -18.078125 0.1875 -18.171875 C -0.0078125 -18.273438 -0.109375 -18.546875 -0.109375 -18.984375 L -0.109375 -20.21875 L 0.5 -20.21875 L 0.5 -21.078125 C 0.5 -21.484375 0.601562 -21.734375 0.8125 -21.828125 C 1.019531 -21.929688 1.175781 -21.984375 1.28125 -21.984375 L 18.34375 -21.984375 C 18.457031 -21.984375 18.609375 -21.929688 18.796875 -21.828125 C 18.992188 -21.734375 19.09375 -21.484375 19.09375 -21.078125 L 19.09375 -20.21875 L 17.65625 -20.21875 Z M 17.65625 -18.984375 "/></g></g></g><g fill="#ffffff" fill-opacity="1"><g transform="translate(52.246218, 175.499988)"><g><path d="M 18.40625 -0.90625 C 18.40625 -0.5 18.304688 -0.238281 18.109375 -0.125 C 17.910156 -0.0195312 17.75 0.03125 17.625 0.03125 L 15.625 0.03125 C 15.519531 0.03125 15.367188 -0.0195312 15.171875 -0.125 C 14.984375 -0.238281 14.890625 -0.5 14.890625 -0.90625 L 14.890625 -2.265625 L 12.375 -2.265625 L 12.375 -5.0625 L 15.3125 -5.0625 L 15.3125 -6.71875 L 14.453125 -6.71875 L 14.453125 -9.125 L 3.234375 -9.125 L 3.234375 -6.71875 L 4.34375 -6.71875 L 4.34375 -3.921875 L 2.828125 -3.921875 L 2.828125 -2.265625 L 4.34375 -2.265625 L 4.34375 -0.90625 C 4.34375 -0.5 4.25 -0.238281 4.0625 -0.125 C 3.875 -0.0195312 3.71875 0.03125 3.59375 0.03125 L 1.59375 0.03125 C 1.488281 0.03125 1.335938 -0.0195312 1.140625 -0.125 C 0.953125 -0.238281 0.859375 -0.5 0.859375 -0.90625 L 0.859375 -2.265625 L 0.40625 -2.265625 L 0.40625 -5.0625 L 1.25 -5.0625 L 1.25 -6.71875 L 0.40625 -6.71875 L 0.40625 -10.984375 L 6.265625 -10.984375 L 6.265625 -11.515625 L 0.40625 -11.515625 L 0.40625 -14.25 L 1.46875 -14.25 L 1.46875 -15.890625 L -1.328125 -15.890625 L -1.328125 -18.984375 L 1.890625 -18.984375 L 1.890625 -20.640625 L 0.40625 -20.640625 L 0.40625 -21.046875 C 0.40625 -21.453125 0.5 -21.707031 0.6875 -21.8125 C 0.882812 -21.925781 1.046875 -21.984375 1.171875 -21.984375 L 2.875 -21.984375 C 2.988281 -21.984375 3.140625 -21.925781 3.328125 -21.8125 C 3.523438 -21.707031 3.625 -21.453125 3.625 -21.046875 L 3.625 -20.640625 L 4.34375 -20.640625 L 4.34375 -18.984375 L 2.875 -18.984375 L 2.875 -18.4375 L 3.4375 -18.4375 L 3.4375 -15.890625 L 4.34375 -15.890625 L 4.34375 -14.25 L 3.234375 -14.25 L 3.234375 -13.0625 L 14.453125 -13.0625 L 14.453125 -14.25 L 15.5 -14.25 L 15.5 -15.890625 L 14.453125 -15.890625 L 14.453125 -18.984375 L 15.921875 -18.984375 L 15.921875 -20.640625 L 14.453125 -20.640625 L 14.453125 -21.046875 C 14.453125 -21.453125 14.546875 -21.707031 14.734375 -21.8125 C 14.921875 -21.925781 15.078125 -21.984375 15.203125 -21.984375 L 16.90625 -21.984375 C 17.007812 -21.984375 17.160156 -21.925781 17.359375 -21.8125 C 17.554688 -21.707031 17.65625 -21.453125 17.65625 -21.046875 L 17.65625 -20.640625 L 18.40625 -20.640625 L 18.40625 -18.984375 L 16.9375 -18.984375 L 16.9375 -18.4375 L 17.46875 -18.4375 L 17.46875 -15.890625 L 18.40625 -15.890625 L 18.40625 -14.25 L 17.25 -14.25 L 17.25 -11.515625 L 18.40625 -11.515625 L 18.40625 -10.984375 L 18.15625 -10.984375 L 18.15625 -6.71875 L 18.40625 -6.71875 L 18.40625 -3.921875 L 16.859375 -3.921875 L 16.859375 -2.265625 L 18.40625 -2.265625 Z M 18.40625 -0.90625 "/></g></g></g><g fill="#ffffff" fill-opacity="1"><g transform="translate(75.840386, 175.499988)"><g><path d="M 18.640625 -0.5 C 18.585938 -0.144531 18.382812 0.03125 18.03125 0.03125 L 15.546875 0.03125 C 15.285156 0.03125 15.097656 -0.0234375 14.984375 -0.140625 C 14.878906 -0.222656 14.785156 -0.34375 14.703125 -0.5 L 14.640625 -0.609375 L 14.21875 -0.609375 L 12.15625 -4.21875 L 13.34375 -4.21875 L 12.96875 -4.875 L 10.328125 -4.875 L 8.5625 -8 L 11.0625 -8 L 10.453125 -9.0625 L 3.8125 -9.0625 L 3.8125 -8 L 3.015625 -8 L 3.015625 -4.875 L 3.8125 -4.875 L 3.8125 -4.21875 L 3.015625 -4.21875 L 3.015625 -0.90625 C 3.015625 -0.851562 3.007812 -0.800781 3 -0.75 C 2.988281 -0.695312 2.984375 -0.648438 2.984375 -0.609375 L 3.78125 -0.609375 C 3.71875 -0.328125 3.601562 -0.148438 3.4375 -0.078125 C 3.28125 -0.00390625 3.15625 0.03125 3.0625 0.03125 L 1.046875 0.03125 C 0.953125 0.03125 0.820312 -0.00390625 0.65625 -0.078125 C 0.488281 -0.148438 0.375 -0.328125 0.3125 -0.609375 L -0.140625 -0.609375 C -0.140625 -0.648438 -0.140625 -0.695312 -0.140625 -0.75 C -0.148438 -0.800781 -0.15625 -0.851562 -0.15625 -0.90625 L -0.15625 -4.21875 L 1.015625 -4.21875 L 1.015625 -4.875 L -0.15625 -4.875 L -0.15625 -8 L 0.875 -8 L 0.875 -9.921875 L -0.15625 -9.921875 L -0.15625 -12.109375 C -0.15625 -12.304688 -0.125 -12.46875 -0.0625 -12.59375 C 0 -12.71875 0.0664062 -12.8125 0.140625 -12.875 L 2.03125 -12.875 C 2.113281 -12.945312 2.195312 -12.988281 2.28125 -13 C 2.363281 -13.007812 2.429688 -13.015625 2.484375 -13.015625 L 14.109375 -13.015625 C 14.710938 -13.015625 15.15625 -13.179688 15.4375 -13.515625 L 8.9375 -13.515625 C 8.957031 -13.535156 8.96875 -13.550781 8.96875 -13.5625 C 8.976562 -13.570312 8.992188 -13.585938 9.015625 -13.609375 C 9.265625 -13.992188 9.40625 -14.601562 9.4375 -15.4375 L 15.125 -15.4375 C 15.125 -15.457031 15.125 -15.472656 15.125 -15.484375 C 15.125 -15.492188 15.125 -15.503906 15.125 -15.515625 C 15.125 -16.316406 15 -16.925781 14.75 -17.34375 L 13.703125 -17.34375 C 13.671875 -17.40625 13.65625 -17.4375 13.65625 -17.4375 C 13.382812 -17.832031 12.90625 -18.03125 12.21875 -18.03125 L 0.609375 -18.03125 C 0.484375 -18.03125 0.320312 -18.078125 0.125 -18.171875 C -0.0625 -18.273438 -0.15625 -18.53125 -0.15625 -18.9375 L -0.15625 -19.25 L 0.78125 -19.25 L 0.78125 -21.046875 C 0.78125 -21.078125 0.78125 -21.101562 0.78125 -21.125 C 0.78125 -21.144531 0.78125 -21.160156 0.78125 -21.171875 L -0.140625 -21.171875 C -0.0976562 -21.523438 0.0078125 -21.75 0.1875 -21.84375 C 0.363281 -21.9375 0.503906 -21.984375 0.609375 -21.984375 L 11.578125 -21.984375 C 12.816406 -21.984375 13.8125 -21.710938 14.5625 -21.171875 L 15.921875 -21.171875 C 16.273438 -20.941406 16.585938 -20.640625 16.859375 -20.265625 C 17.054688 -19.984375 17.242188 -19.644531 17.421875 -19.25 L 16.25 -19.25 C 16.351562 -18.96875 16.445312 -18.671875 16.53125 -18.359375 C 16.625 -18.046875 16.6875 -17.710938 16.71875 -17.359375 L 17.890625 -17.359375 C 17.929688 -17.078125 17.960938 -16.785156 17.984375 -16.484375 C 18.015625 -16.179688 18.03125 -15.859375 18.03125 -15.515625 C 18.03125 -15.503906 18.03125 -15.492188 18.03125 -15.484375 C 18.03125 -15.472656 18.03125 -15.457031 18.03125 -15.4375 L 16.25 -15.4375 C 16.25 -15.101562 16.234375 -14.773438 16.203125 -14.453125 C 16.171875 -14.128906 16.140625 -13.816406 16.109375 -13.515625 L 21.15625 -13.515625 C 21.132812 -13.304688 21.085938 -13.09375 21.015625 -12.875 L 16.25 -12.875 C 16.0625 -12.0625 15.765625 -11.363281 15.359375 -10.78125 C 15.109375 -10.457031 14.828125 -10.171875 14.515625 -9.921875 L 16 -9.921875 C 15.394531 -9.515625 14.6875 -9.257812 13.875 -9.15625 L 14.53125 -8 L 13.734375 -8 L 15.546875 -4.875 L 16.34375 -4.875 L 16.71875 -4.21875 L 15.921875 -4.21875 L 17.734375 -1.140625 C 17.804688 -1.015625 17.84375 -0.835938 17.84375 -0.609375 L 18.640625 -0.609375 C 18.640625 -0.597656 18.640625 -0.582031 18.640625 -0.5625 C 18.640625 -0.539062 18.640625 -0.519531 18.640625 -0.5 Z M 18.640625 -0.5 "/></g></g></g><g fill="#ffffff" fill-opacity="1"><g transform="translate(100.261023, 175.499988)"><g><path d="M 17.234375 -2.046875 L 17.234375 -1.515625 L 16.328125 -1.515625 L 16.328125 -0.90625 C 16.328125 -0.625 16.269531 -0.414062 16.15625 -0.28125 C 16.050781 -0.144531 15.9375 -0.0625 15.8125 -0.03125 L 7.015625 -0.03125 C 6.429688 -0.03125 5.882812 -0.0625 5.375 -0.125 C 4.863281 -0.195312 4.40625 -0.316406 4 -0.484375 C 3.675781 -0.585938 3.375 -0.726562 3.09375 -0.90625 C 2.820312 -1.082031 2.566406 -1.285156 2.328125 -1.515625 L 3.546875 -1.515625 L 3.203125 -1.890625 C 3.179688 -1.929688 3.160156 -1.960938 3.140625 -1.984375 C 3.128906 -2.015625 3.113281 -2.035156 3.09375 -2.046875 L 1.859375 -2.046875 C 1.628906 -2.390625 1.421875 -2.769531 1.234375 -3.1875 C 1.046875 -3.601562 0.898438 -4.0625 0.796875 -4.5625 L 2.15625 -4.5625 C 2.050781 -5.070312 1.972656 -5.625 1.921875 -6.21875 L -0.71875 -6.21875 C -0.738281 -6.46875 -0.753906 -6.710938 -0.765625 -6.953125 C -0.785156 -7.203125 -0.796875 -7.472656 -0.796875 -7.765625 L -0.828125 -7.890625 L -0.796875 -8.875 L 1.28125 -8.875 L 1.28125 -9.421875 L 0.484375 -9.421875 L 0.5 -11.25 C 0.5625 -11.5 0.65625 -11.722656 0.78125 -11.921875 C 1.113281 -12.503906 1.628906 -12.867188 2.328125 -13.015625 L 15.546875 -13.046875 C 15.648438 -13.046875 15.800781 -12.988281 16 -12.875 C 16.195312 -12.769531 16.296875 -12.515625 16.296875 -12.109375 L 16.296875 -10 C 16.296875 -9.75 16.25 -9.554688 16.15625 -9.421875 L 16.9375 -9.421875 C 16.863281 -9.296875 16.769531 -9.210938 16.65625 -9.171875 C 16.539062 -9.140625 16.4375 -9.125 16.34375 -9.125 L 4.421875 -9.125 L 4.421875 -8.875 L 3.625 -8.875 C 3.625 -8.71875 3.625 -8.5 3.625 -8.21875 C 3.625 -7.945312 3.617188 -7.703125 3.609375 -7.484375 C 3.597656 -7.273438 3.59375 -7.171875 3.59375 -7.171875 L 3.65625 -6.6875 C 3.6875 -6.53125 3.726562 -6.375 3.78125 -6.21875 L 4.59375 -6.21875 C 4.625 -6.09375 4.664062 -5.972656 4.71875 -5.859375 C 4.769531 -5.742188 4.820312 -5.640625 4.875 -5.546875 C 5.09375 -5.273438 5.367188 -5.082031 5.703125 -4.96875 C 5.878906 -4.90625 6.082031 -4.859375 6.3125 -4.828125 C 6.550781 -4.796875 6.8125 -4.78125 7.09375 -4.78125 L 7.765625 -4.78125 C 7.867188 -4.757812 7.976562 -4.75 8.09375 -4.75 C 8.207031 -4.75 8.328125 -4.75 8.453125 -4.75 L 16.71875 -4.75 C 16.84375 -4.707031 16.941406 -4.644531 17.015625 -4.5625 L 16 -4.5625 C 16.09375 -4.488281 16.164062 -4.394531 16.21875 -4.28125 C 16.269531 -4.164062 16.296875 -4.007812 16.296875 -3.8125 L 16.296875 -2.046875 Z M -0.5625 -21.078125 C -0.5625 -21.492188 -0.46875 -21.753906 -0.28125 -21.859375 C -0.09375 -21.972656 0.0625 -22.03125 0.1875 -22.03125 L 14.1875 -22.03125 C 14.289062 -22.03125 14.441406 -21.972656 14.640625 -21.859375 C 14.835938 -21.753906 14.9375 -21.5 14.9375 -21.09375 L 14.9375 -20.984375 L 16.25 -20.984375 L 16.25 -20.453125 L 14.9375 -20.453125 L 14.9375 -18.984375 C 14.9375 -18.953125 14.929688 -18.921875 14.921875 -18.890625 C 14.910156 -18.867188 14.90625 -18.835938 14.90625 -18.796875 L 16.25 -18.796875 C 16.207031 -18.484375 16.097656 -18.28125 15.921875 -18.1875 C 15.742188 -18.101562 15.609375 -18.0625 15.515625 -18.0625 L 0.53125 -18.078125 C 0.425781 -18.078125 0.285156 -18.117188 0.109375 -18.203125 C -0.0664062 -18.285156 -0.175781 -18.484375 -0.21875 -18.796875 L -0.53125 -18.796875 C -0.550781 -18.835938 -0.5625 -18.898438 -0.5625 -18.984375 L -0.5625 -20.453125 L 1.09375 -20.453125 L 1.09375 -20.984375 L -0.5625 -20.984375 Z M -0.5625 -21.078125 "/></g></g></g><g fill="#ffffff" fill-opacity="1"><g transform="translate(122.655496, 175.499988)"><g><path d="M 19.875 -0.375 C 19.851562 -0.300781 19.800781 -0.210938 19.71875 -0.109375 C 19.644531 -0.015625 19.507812 0.03125 19.3125 0.03125 L 17.34375 0.03125 C 17.019531 0.03125 16.785156 -0.128906 16.640625 -0.453125 L 17.84375 -0.453125 C 17.84375 -0.472656 17.835938 -0.488281 17.828125 -0.5 C 17.816406 -0.519531 17.8125 -0.539062 17.8125 -0.5625 L 17.625 -0.984375 L 16.40625 -0.984375 L 15.734375 -2.671875 L 16.4375 -2.671875 L 14.984375 -6.21875 L 14.328125 -6.21875 L 11.953125 -12.140625 L 13.171875 -12.140625 L 12.96875 -12.703125 L 11.703125 -12.703125 L 10.640625 -15.390625 L 11.203125 -15.390625 L 10.53125 -17.0625 L 10.375 -17.0625 C 10.375 -17.0625 10.375 -17.054688 10.375 -17.046875 L 10.15625 -16.5625 L 9.96875 -17.0625 C 9.957031 -17.101562 9.945312 -17.125 9.9375 -17.125 C 9.925781 -17.125 9.921875 -17.125 9.921875 -17.125 L 9.8125 -17.125 C 9.8125 -17.125 9.8125 -17.117188 9.8125 -17.109375 C 9.8125 -17.097656 9.800781 -17.078125 9.78125 -17.046875 L 9.125 -15.390625 L 8.40625 -15.390625 L 7.328125 -12.703125 L 8.0625 -12.703125 L 7.84375 -12.140625 L 6.375 -8.40625 L 9.65625 -8.40625 C 9.6875 -8.40625 9.726562 -8.398438 9.78125 -8.390625 C 9.84375 -8.378906 9.878906 -8.375 9.890625 -8.375 C 9.960938 -8.351562 10.035156 -8.316406 10.109375 -8.265625 C 10.109375 -8.265625 10.117188 -8.265625 10.140625 -8.265625 C 10.296875 -8.140625 10.390625 -8.015625 10.421875 -7.890625 L 9.015625 -7.890625 C 9.015625 -7.890625 9.015625 -7.882812 9.015625 -7.875 L 9.6875 -6.21875 L 11.09375 -6.21875 L 11.390625 -5.5 C 11.515625 -5.207031 11.488281 -4.945312 11.3125 -4.71875 C 11.144531 -4.46875 10.910156 -4.34375 10.609375 -4.34375 L 4.75 -4.34375 L 4.078125 -2.671875 L 3.234375 -2.671875 L 2.59375 -0.984375 L 3.4375 -0.984375 L 3.25 -0.53125 C 3.238281 -0.507812 3.234375 -0.492188 3.234375 -0.484375 C 3.234375 -0.484375 3.222656 -0.472656 3.203125 -0.453125 L 2.296875 -0.453125 C 2.117188 -0.128906 1.878906 0.03125 1.578125 0.03125 L -0.421875 0.03125 C -0.640625 0.03125 -0.785156 -0.015625 -0.859375 -0.109375 C -0.941406 -0.210938 -1.003906 -0.300781 -1.046875 -0.375 C -1.046875 -0.394531 -1.046875 -0.40625 -1.046875 -0.40625 C -1.046875 -0.414062 -1.046875 -0.429688 -1.046875 -0.453125 L 0.15625 -0.453125 C 0.144531 -0.597656 0.171875 -0.773438 0.234375 -0.984375 L -0.953125 -0.984375 C -0.953125 -1.003906 -0.953125 -1.015625 -0.953125 -1.015625 L -0.296875 -2.671875 L 0.375 -2.671875 L 1.8125 -6.21875 L 1.125 -6.21875 L 1.78125 -7.890625 L 3.5 -12.140625 L 4.75 -12.140625 L 4.96875 -12.703125 L 3.734375 -12.703125 L 4.828125 -15.390625 L 5.390625 -15.390625 L 6.046875 -17.0625 L 5.5 -17.0625 L 6.453125 -19.5 C 6.503906 -19.625 6.554688 -19.738281 6.609375 -19.84375 C 6.660156 -19.945312 6.707031 -20.050781 6.75 -20.15625 L 7.546875 -20.15625 C 7.847656 -20.75 8.140625 -21.175781 8.421875 -21.4375 C 8.484375 -21.476562 8.546875 -21.523438 8.609375 -21.578125 C 8.679688 -21.628906 8.753906 -21.671875 8.828125 -21.703125 C 8.859375 -21.722656 8.890625 -21.742188 8.921875 -21.765625 C 8.953125 -21.785156 8.972656 -21.800781 8.984375 -21.8125 L 8.21875 -21.8125 C 8.34375 -21.882812 8.46875 -21.945312 8.59375 -22 C 8.601562 -22 8.609375 -22 8.609375 -22 C 8.734375 -22.070312 8.859375 -22.117188 8.984375 -22.140625 C 9.023438 -22.160156 9.070312 -22.171875 9.125 -22.171875 C 9.175781 -22.179688 9.273438 -22.207031 9.421875 -22.25 C 9.503906 -22.257812 9.582031 -22.265625 9.65625 -22.265625 C 9.726562 -22.265625 9.800781 -22.265625 9.875 -22.265625 C 9.957031 -22.265625 10.035156 -22.265625 10.109375 -22.265625 C 10.191406 -22.265625 10.269531 -22.257812 10.34375 -22.25 C 10.457031 -22.207031 10.539062 -22.1875 10.59375 -22.1875 C 10.625 -22.175781 10.65625 -22.171875 10.6875 -22.171875 C 10.726562 -22.171875 10.765625 -22.160156 10.796875 -22.140625 C 10.847656 -22.117188 10.898438 -22.097656 10.953125 -22.078125 C 11.015625 -22.066406 11.0625 -22.050781 11.09375 -22.03125 C 11.164062 -22 11.203125 -21.984375 11.203125 -21.984375 C 11.253906 -21.960938 11.3125 -21.9375 11.375 -21.90625 C 11.4375 -21.882812 11.484375 -21.851562 11.515625 -21.8125 C 12.191406 -21.425781 12.664062 -20.875 12.9375 -20.15625 L 10.40625 -20.15625 C 10.414062 -20.101562 10.429688 -20.054688 10.453125 -20.015625 C 10.472656 -19.972656 10.492188 -19.929688 10.515625 -19.890625 C 10.523438 -19.835938 10.566406 -19.742188 10.640625 -19.609375 L 11.78125 -19.609375 C 11.78125 -19.566406 11.800781 -19.53125 11.84375 -19.5 L 12.796875 -17.0625 L 14.21875 -17.0625 L 14.890625 -15.390625 L 14.15625 -15.390625 L 15.25 -12.703125 L 15.96875 -12.703125 L 17.46875 -9.015625 L 17.921875 -7.890625 L 16.515625 -7.890625 L 17.171875 -6.21875 L 18.609375 -6.21875 L 20.0625 -2.671875 L 19.203125 -2.671875 L 19.875 -1.015625 C 19.875 -1.015625 19.875 -1.003906 19.875 -0.984375 L 20.71875 -0.984375 C 20.789062 -0.804688 20.8125 -0.628906 20.78125 -0.453125 L 19.875 -0.453125 C 19.875 -0.429688 19.875 -0.410156 19.875 -0.390625 C 19.875 -0.378906 19.875 -0.375 19.875 -0.375 Z M 19.875 -0.375 "/></g></g></g><g fill="#ffffff" fill-opacity="1"><g transform="translate(150.168704, 175.499988)"><g><path d="M 17.65625 -18.984375 C 17.65625 -18.546875 17.554688 -18.273438 17.359375 -18.171875 C 17.160156 -18.078125 17.003906 -18.03125 16.890625 -18.03125 L 10.03125 -18.03125 L 10.03125 -17.234375 L 16.5625 -17.234375 L 16.5625 -16.59375 L 10.5625 -16.59375 L 10.5625 -12.828125 L 11.46875 -12.828125 L 11.46875 -10.875 L 12.296875 -10.875 L 12.296875 -7.953125 L 11.46875 -7.953125 L 11.46875 -7.3125 L 10.5625 -7.3125 L 10.5625 -5.390625 L 11.46875 -5.390625 L 11.46875 -0.90625 C 11.46875 -0.5 11.375 -0.242188 11.1875 -0.140625 C 11 -0.046875 10.851562 0 10.75 0 L 9.765625 0 C 9.640625 0 9.484375 -0.046875 9.296875 -0.140625 C 9.109375 -0.242188 9.015625 -0.5 9.015625 -0.90625 L 9.015625 -1.578125 L 5.875 -1.578125 L 5.875 -3.46875 L 8.140625 -3.46875 L 8.140625 -5.390625 L 7.515625 -5.390625 L 7.515625 -7.3125 L 8.140625 -7.3125 L 8.140625 -7.953125 L 6.03125 -7.953125 L 6.03125 -10.875 L 8.140625 -10.875 L 8.140625 -12.828125 L 7.515625 -12.828125 L 7.515625 -16.59375 L 9.015625 -16.59375 L 9.015625 -17.234375 L 7.515625 -17.234375 L 7.515625 -18.03125 L 0.671875 -18.03125 C 0.554688 -18.03125 0.394531 -18.078125 0.1875 -18.171875 C -0.0078125 -18.273438 -0.109375 -18.546875 -0.109375 -18.984375 L -0.109375 -20.21875 L 0.5 -20.21875 L 0.5 -21.078125 C 0.5 -21.484375 0.601562 -21.734375 0.8125 -21.828125 C 1.019531 -21.929688 1.175781 -21.984375 1.28125 -21.984375 L 18.34375 -21.984375 C 18.457031 -21.984375 18.609375 -21.929688 18.796875 -21.828125 C 18.992188 -21.734375 19.09375 -21.484375 19.09375 -21.078125 L 19.09375 -20.21875 L 17.65625 -20.21875 Z M 17.65625 -18.984375 "/></g></g></g><g fill="#ffffff" fill-opacity="1"><g transform="translate(174.962579, 175.499988)"><g/></g></g><g fill="#ffffff" fill-opacity="1"><g transform="translate(189.998868, 175.499988)"><g><path d="M 18.40625 -0.90625 C 18.40625 -0.5 18.304688 -0.238281 18.109375 -0.125 C 17.910156 -0.0195312 17.75 0.03125 17.625 0.03125 L 15.625 0.03125 C 15.519531 0.03125 15.367188 -0.0195312 15.171875 -0.125 C 14.984375 -0.238281 14.890625 -0.5 14.890625 -0.90625 L 14.890625 -2.265625 L 12.375 -2.265625 L 12.375 -5.0625 L 15.3125 -5.0625 L 15.3125 -6.71875 L 14.453125 -6.71875 L 14.453125 -9.125 L 3.234375 -9.125 L 3.234375 -6.71875 L 4.34375 -6.71875 L 4.34375 -3.921875 L 2.828125 -3.921875 L 2.828125 -2.265625 L 4.34375 -2.265625 L 4.34375 -0.90625 C 4.34375 -0.5 4.25 -0.238281 4.0625 -0.125 C 3.875 -0.0195312 3.71875 0.03125 3.59375 0.03125 L 1.59375 0.03125 C 1.488281 0.03125 1.335938 -0.0195312 1.140625 -0.125 C 0.953125 -0.238281 0.859375 -0.5 0.859375 -0.90625 L 0.859375 -2.265625 L 0.40625 -2.265625 L 0.40625 -5.0625 L 1.25 -5.0625 L 1.25 -6.71875 L 0.40625 -6.71875 L 0.40625 -10.984375 L 6.265625 -10.984375 L 6.265625 -11.515625 L 0.40625 -11.515625 L 0.40625 -14.25 L 1.46875 -14.25 L 1.46875 -15.890625 L -1.328125 -15.890625 L -1.328125 -18.984375 L 1.890625 -18.984375 L 1.890625 -20.640625 L 0.40625 -20.640625 L 0.40625 -21.046875 C 0.40625 -21.453125 0.5 -21.707031 0.6875 -21.8125 C 0.882812 -21.925781 1.046875 -21.984375 1.171875 -21.984375 L 2.875 -21.984375 C 2.988281 -21.984375 3.140625 -21.925781 3.328125 -21.8125 C 3.523438 -21.707031 3.625 -21.453125 3.625 -21.046875 L 3.625 -20.640625 L 4.34375 -20.640625 L 4.34375 -18.984375 L 2.875 -18.984375 L 2.875 -18.4375 L 3.4375 -18.4375 L 3.4375 -15.890625 L 4.34375 -15.890625 L 4.34375 -14.25 L 3.234375 -14.25 L 3.234375 -13.0625 L 14.453125 -13.0625 L 14.453125 -14.25 L 15.5 -14.25 L 15.5 -15.890625 L 14.453125 -15.890625 L 14.453125 -18.984375 L 15.921875 -18.984375 L 15.921875 -20.640625 L 14.453125 -20.640625 L 14.453125 -21.046875 C 14.453125 -21.453125 14.546875 -21.707031 14.734375 -21.8125 C 14.921875 -21.925781 15.078125 -21.984375 15.203125 -21.984375 L 16.90625 -21.984375 C 17.007812 -21.984375 17.160156 -21.925781 17.359375 -21.8125 C 17.554688 -21.707031 17.65625 -21.453125 17.65625 -21.046875 L 17.65625 -20.640625 L 18.40625 -20.640625 L 18.40625 -18.984375 L 16.9375 -18.984375 L 16.9375 -18.4375 L 17.46875 -18.4375 L 17.46875 -15.890625 L 18.40625 -15.890625 L 18.40625 -14.25 L 17.25 -14.25 L 17.25 -11.515625 L 18.40625 -11.515625 L 18.40625 -10.984375 L 18.15625 -10.984375 L 18.15625 -6.71875 L 18.40625 -6.71875 L 18.40625 -3.921875 L 16.859375 -3.921875 L 16.859375 -2.265625 L 18.40625 -2.265625 Z M 18.40625 -0.90625 "/></g></g></g><g fill="#ffffff" fill-opacity="1"><g transform="translate(213.593036, 175.499988)"><g><path d="M 15.953125 -0.609375 C 15.878906 -0.597656 15.804688 -0.570312 15.734375 -0.53125 C 15.660156 -0.5 15.585938 -0.460938 15.515625 -0.421875 C 14.722656 -0.140625 13.722656 0 12.515625 0 L 7.46875 0 C 6.257812 0 5.265625 -0.140625 4.484375 -0.421875 C 4.410156 -0.460938 4.335938 -0.5 4.265625 -0.53125 C 4.191406 -0.570312 4.117188 -0.597656 4.046875 -0.609375 L 3.0625 -0.609375 C 2.40625 -0.929688 1.851562 -1.367188 1.40625 -1.921875 C 1.269531 -2.097656 1.140625 -2.300781 1.015625 -2.53125 L 1.96875 -2.53125 C 1.832031 -2.8125 1.703125 -3.109375 1.578125 -3.421875 C 1.460938 -3.734375 1.363281 -4.066406 1.28125 -4.421875 L 0.296875 -4.421875 C 0.296875 -4.421875 0.296875 -4.425781 0.296875 -4.4375 C 0.296875 -4.445312 0.296875 -4.453125 0.296875 -4.453125 C 0.273438 -4.472656 0.265625 -4.5 0.265625 -4.53125 C 0.191406 -4.800781 0.132812 -5.085938 0.09375 -5.390625 C 0.0625 -5.691406 0.03125 -6.007812 0 -6.34375 L 0.484375 -6.34375 C 0.429688 -6.96875 0.40625 -7.609375 0.40625 -8.265625 L -0.109375 -8.265625 C -0.109375 -8.285156 -0.109375 -8.300781 -0.109375 -8.3125 C -0.109375 -8.320312 -0.109375 -8.332031 -0.109375 -8.34375 L -0.109375 -8.9375 L 0.40625 -8.9375 L 0.40625 -11.875 L -0.109375 -11.875 L -0.109375 -13.796875 L 0.875 -13.796875 L 0.875 -17.578125 L -1.171875 -17.578125 L -1.171875 -18.21875 L 0.40625 -18.21875 L 0.40625 -19.703125 L -0.109375 -19.703125 L -0.109375 -21.078125 C -0.109375 -21.484375 -0.0078125 -21.734375 0.1875 -21.828125 C 0.382812 -21.929688 0.546875 -21.984375 0.671875 -21.984375 L 2.140625 -21.984375 C 2.242188 -21.984375 2.390625 -21.929688 2.578125 -21.828125 C 2.773438 -21.734375 2.875 -21.484375 2.875 -21.078125 L 2.875 -19.703125 L 3.875 -19.703125 L 3.875 -13.796875 L 2.875 -13.796875 L 2.875 -11.875 L 3.875 -11.875 L 3.875 -7.921875 C 3.875 -7.335938 3.898438 -6.8125 3.953125 -6.34375 L 2.953125 -6.34375 C 2.953125 -6.269531 2.957031 -6.195312 2.96875 -6.125 C 2.976562 -6.0625 2.992188 -5.992188 3.015625 -5.921875 C 3.085938 -5.421875 3.238281 -5.019531 3.46875 -4.71875 C 3.5 -4.664062 3.535156 -4.613281 3.578125 -4.5625 C 3.628906 -4.519531 3.671875 -4.484375 3.703125 -4.453125 L 4.6875 -4.453125 C 4.707031 -4.453125 4.71875 -4.445312 4.71875 -4.4375 C 4.71875 -4.425781 4.71875 -4.421875 4.71875 -4.421875 C 4.863281 -4.316406 5.039062 -4.222656 5.25 -4.140625 C 5.425781 -4.078125 5.625 -4.03125 5.84375 -4 C 6.070312 -3.96875 6.328125 -3.953125 6.609375 -3.953125 L 13.390625 -3.953125 C 13.671875 -3.953125 13.921875 -3.96875 14.140625 -4 C 14.367188 -4.03125 14.570312 -4.078125 14.75 -4.140625 C 14.957031 -4.222656 15.132812 -4.316406 15.28125 -4.421875 L 14.296875 -4.421875 C 14.296875 -4.421875 14.296875 -4.425781 14.296875 -4.4375 C 14.296875 -4.445312 14.304688 -4.453125 14.328125 -4.453125 C 14.359375 -4.484375 14.394531 -4.519531 14.4375 -4.5625 C 14.488281 -4.613281 14.53125 -4.664062 14.5625 -4.71875 C 14.757812 -5 14.898438 -5.398438 14.984375 -5.921875 C 15.003906 -5.992188 15.019531 -6.0625 15.03125 -6.125 C 15.039062 -6.195312 15.050781 -6.269531 15.0625 -6.34375 L 15.546875 -6.34375 C 15.597656 -6.8125 15.625 -7.335938 15.625 -7.921875 L 15.625 -8.265625 L 12.875 -8.265625 L 12.875 -8.9375 L 15.625 -8.9375 L 15.625 -11.875 L 8 -11.875 L 8 -13.796875 L 16.109375 -13.796875 L 16.109375 -17.578125 L 15.125 -17.578125 L 15.125 -18.21875 L 15.625 -18.21875 L 15.625 -19.703125 L 15.125 -19.703125 L 15.125 -21.078125 C 15.125 -21.484375 15.21875 -21.734375 15.40625 -21.828125 C 15.601562 -21.929688 15.757812 -21.984375 15.875 -21.984375 L 17.359375 -21.984375 C 17.460938 -21.984375 17.613281 -21.929688 17.8125 -21.828125 C 18.007812 -21.734375 18.109375 -21.484375 18.109375 -21.078125 L 18.109375 -19.703125 L 20.40625 -19.703125 L 20.40625 -18.21875 L 18.109375 -18.21875 L 18.109375 -17.578125 L 19.09375 -17.578125 L 19.09375 -13.796875 L 18.109375 -13.796875 L 18.109375 -11.875 L 19.09375 -11.875 L 19.09375 -8.9375 L 18.59375 -8.9375 L 18.59375 -8.34375 C 18.59375 -8.332031 18.59375 -8.320312 18.59375 -8.3125 C 18.59375 -8.300781 18.59375 -8.285156 18.59375 -8.265625 L 19.09375 -8.265625 C 19.09375 -7.609375 19.066406 -6.96875 19.015625 -6.34375 L 18.03125 -6.34375 C 18.007812 -6.007812 17.972656 -5.691406 17.921875 -5.390625 C 17.867188 -5.085938 17.816406 -4.800781 17.765625 -4.53125 C 17.765625 -4.507812 17.757812 -4.492188 17.75 -4.484375 C 17.738281 -4.484375 17.734375 -4.472656 17.734375 -4.453125 L 18.71875 -4.453125 C 18.71875 -4.429688 18.71875 -4.421875 18.71875 -4.421875 C 18.632812 -4.066406 18.535156 -3.734375 18.421875 -3.421875 C 18.304688 -3.109375 18.164062 -2.8125 18 -2.53125 L 17.515625 -2.53125 C 17.453125 -2.425781 17.390625 -2.316406 17.328125 -2.203125 C 17.265625 -2.097656 17.1875 -2.003906 17.09375 -1.921875 C 16.6875 -1.390625 16.132812 -0.953125 15.4375 -0.609375 Z M 15.953125 -0.609375 "/></g></g></g><g fill="#ffffff" fill-opacity="1"><g transform="translate(238.360257, 175.499988)"><g><path d="M 17.734375 -0.75 C 17.359375 -0.226562 16.78125 0.03125 16 0.03125 L 14.859375 0.03125 C 14.503906 0.03125 14.203125 0.00390625 13.953125 -0.046875 C 13.828125 -0.0859375 13.703125 -0.128906 13.578125 -0.171875 C 13.453125 -0.210938 13.335938 -0.269531 13.234375 -0.34375 C 13.015625 -0.46875 12.816406 -0.664062 12.640625 -0.9375 C 12.429688 -1.195312 12.21875 -1.523438 12 -1.921875 L 11.96875 -2 L 13.0625 -2 L 11.421875 -4.9375 L 7.328125 -4.9375 L 4.484375 -10 L 8.609375 -10 L 8.234375 -10.640625 L 7.6875 -10.640625 L 4.90625 -15.578125 L 4.34375 -15.578125 L 3.578125 -16.90625 C 3.554688 -16.945312 3.535156 -16.96875 3.515625 -16.96875 C 3.503906 -16.976562 3.5 -16.984375 3.5 -16.984375 L 3.359375 -16.984375 C 3.359375 -16.984375 3.359375 -16.976562 3.359375 -16.96875 C 3.359375 -16.96875 3.359375 -16.957031 3.359375 -16.9375 L 3.359375 -10 L 2.78125 -10 L 2.78125 -6.859375 L 3.359375 -6.859375 L 3.359375 -2 L 2.40625 -2 L 2.40625 -1.359375 L 3.359375 -1.359375 L 3.359375 -0.90625 C 3.359375 -0.5 3.257812 -0.238281 3.0625 -0.125 C 2.875 -0.0195312 2.722656 0.03125 2.609375 0.03125 L 1.4375 0.03125 C 1.3125 0.03125 1.148438 -0.0195312 0.953125 -0.125 C 0.765625 -0.238281 0.671875 -0.5 0.671875 -0.90625 L 0.671875 -1.359375 L -0.53125 -1.359375 L -0.53125 -2 L 0.375 -2 L 0.375 -4.9375 L -0.53125 -4.9375 L -0.53125 -10.640625 L 0.046875 -10.640625 L 0.046875 -15.578125 L -0.53125 -15.578125 L -0.53125 -17.5 L -0.140625 -17.5 L -0.140625 -18.53125 C -0.140625 -18.582031 -0.140625 -18.628906 -0.140625 -18.671875 C -0.140625 -18.722656 -0.140625 -18.773438 -0.140625 -18.828125 L -0.53125 -18.828125 C -0.507812 -19.628906 -0.410156 -20.269531 -0.234375 -20.75 L 0.609375 -20.75 C 0.703125 -20.945312 0.785156 -21.109375 0.859375 -21.234375 C 1.265625 -21.734375 1.847656 -21.984375 2.609375 -21.984375 L 3.734375 -21.984375 C 3.929688 -21.984375 4.109375 -21.976562 4.265625 -21.96875 C 4.421875 -21.957031 4.5625 -21.941406 4.6875 -21.921875 C 4.976562 -21.867188 5.226562 -21.765625 5.4375 -21.609375 C 5.613281 -21.484375 5.800781 -21.273438 6 -20.984375 C 6.03125 -20.953125 6.0625 -20.910156 6.09375 -20.859375 C 6.125 -20.816406 6.144531 -20.78125 6.15625 -20.75 L 5.046875 -20.75 C 5.109375 -20.644531 5.171875 -20.535156 5.234375 -20.421875 C 5.296875 -20.304688 5.363281 -20.175781 5.4375 -20.03125 L 6.140625 -18.828125 L 12.375 -18.828125 L 13.125 -17.5 L 6.75 -17.5 L 7.84375 -15.578125 L 9.09375 -15.578125 L 12.21875 -10 L 11.625 -10 L 13.390625 -6.859375 L 12.59375 -6.859375 L 13.609375 -5.046875 C 13.617188 -4.992188 13.644531 -4.96875 13.6875 -4.96875 L 13.8125 -4.96875 C 13.8125 -4.976562 13.8125 -4.984375 13.8125 -4.984375 C 13.8125 -4.984375 13.8125 -4.992188 13.8125 -5.015625 L 13.8125 -6.859375 L 13.96875 -6.859375 L 14.984375 -5.046875 C 15.023438 -5.003906 15.046875 -4.976562 15.046875 -4.96875 C 15.054688 -4.96875 15.0625 -4.96875 15.0625 -4.96875 L 15.234375 -4.96875 C 15.234375 -4.976562 15.234375 -4.984375 15.234375 -4.984375 C 15.234375 -4.984375 15.234375 -4.992188 15.234375 -5.015625 L 15.234375 -10.640625 L 15.8125 -10.640625 L 15.8125 -15.578125 L 15.234375 -15.578125 L 15.234375 -17.5 L 15.609375 -17.5 L 15.609375 -18.828125 L 15.234375 -18.828125 L 15.234375 -20.75 L 16.0625 -20.75 L 16.0625 -21.046875 C 16.0625 -21.472656 16.15625 -21.734375 16.34375 -21.828125 C 16.539062 -21.929688 16.691406 -21.984375 16.796875 -21.984375 L 18.34375 -21.984375 C 18.457031 -21.984375 18.609375 -21.929688 18.796875 -21.828125 C 18.984375 -21.734375 19.078125 -21.472656 19.078125 -21.046875 L 19.078125 -20.75 L 17.953125 -20.75 L 17.953125 -18.828125 L 20.296875 -18.828125 L 20.296875 -17.5 L 17.8125 -17.5 L 17.8125 -15.578125 L 19.078125 -15.578125 L 19.078125 -10 L 18.484375 -10 L 18.484375 -6.859375 L 17.6875 -6.859375 L 17.6875 -4.9375 L 19.078125 -4.9375 L 19.078125 -3.40625 C 19.078125 -2.875 19.046875 -2.40625 18.984375 -2 L 17.921875 -2 C 17.898438 -1.875 17.875 -1.757812 17.84375 -1.65625 C 17.8125 -1.550781 17.773438 -1.453125 17.734375 -1.359375 L 18.03125 -1.359375 C 18 -1.234375 17.957031 -1.117188 17.90625 -1.015625 C 17.863281 -0.921875 17.804688 -0.832031 17.734375 -0.75 Z M 17.734375 -0.75 "/></g></g></g><g fill="#ffffff" fill-opacity="1"><g transform="translate(263.580699, 175.499988)"><g><path d="M 17.65625 -18.984375 C 17.65625 -18.546875 17.554688 -18.273438 17.359375 -18.171875 C 17.160156 -18.078125 17.003906 -18.03125 16.890625 -18.03125 L 10.03125 -18.03125 L 10.03125 -17.234375 L 16.5625 -17.234375 L 16.5625 -16.59375 L 10.5625 -16.59375 L 10.5625 -12.828125 L 11.46875 -12.828125 L 11.46875 -10.875 L 12.296875 -10.875 L 12.296875 -7.953125 L 11.46875 -7.953125 L 11.46875 -7.3125 L 10.5625 -7.3125 L 10.5625 -5.390625 L 11.46875 -5.390625 L 11.46875 -0.90625 C 11.46875 -0.5 11.375 -0.242188 11.1875 -0.140625 C 11 -0.046875 10.851562 0 10.75 0 L 9.765625 0 C 9.640625 0 9.484375 -0.046875 9.296875 -0.140625 C 9.109375 -0.242188 9.015625 -0.5 9.015625 -0.90625 L 9.015625 -1.578125 L 5.875 -1.578125 L 5.875 -3.46875 L 8.140625 -3.46875 L 8.140625 -5.390625 L 7.515625 -5.390625 L 7.515625 -7.3125 L 8.140625 -7.3125 L 8.140625 -7.953125 L 6.03125 -7.953125 L 6.03125 -10.875 L 8.140625 -10.875 L 8.140625 -12.828125 L 7.515625 -12.828125 L 7.515625 -16.59375 L 9.015625 -16.59375 L 9.015625 -17.234375 L 7.515625 -17.234375 L 7.515625 -18.03125 L 0.671875 -18.03125 C 0.554688 -18.03125 0.394531 -18.078125 0.1875 -18.171875 C -0.0078125 -18.273438 -0.109375 -18.546875 -0.109375 -18.984375 L -0.109375 -20.21875 L 0.5 -20.21875 L 0.5 -21.078125 C 0.5 -21.484375 0.601562 -21.734375 0.8125 -21.828125 C 1.019531 -21.929688 1.175781 -21.984375 1.28125 -21.984375 L 18.34375 -21.984375 C 18.457031 -21.984375 18.609375 -21.929688 18.796875 -21.828125 C 18.992188 -21.734375 19.09375 -21.484375 19.09375 -21.078125 L 19.09375 -20.21875 L 17.65625 -20.21875 Z M 17.65625 -18.984375 "/></g></g></g><g fill="#ffffff" fill-opacity="1"><g transform="translate(288.374574, 175.499988)"><g><path d="M 4.234375 -0.90625 C 4.234375 -0.5 4.132812 -0.238281 3.9375 -0.125 C 3.75 -0.0195312 3.601562 0.03125 3.5 0.03125 L 1.359375 0.03125 C 1.253906 0.03125 1.101562 -0.0195312 0.90625 -0.125 C 0.707031 -0.238281 0.609375 -0.5 0.609375 -0.90625 L 0.609375 -2.046875 L 1.3125 -2.046875 L 1.3125 -3.703125 L -1.140625 -3.703125 L -1.140625 -4.859375 L 1.0625 -4.859375 L 1.0625 -6.515625 L 0.609375 -6.515625 L 0.609375 -11.3125 L 1.515625 -11.3125 L 1.515625 -14.03125 L 0.609375 -14.03125 L 0.609375 -18.21875 L 1.8125 -18.21875 L 1.8125 -18.78125 L 0.609375 -18.78125 L 0.609375 -20.4375 L 1.234375 -20.4375 L 1.234375 -21.046875 C 1.234375 -21.453125 1.347656 -21.707031 1.578125 -21.8125 C 1.804688 -21.925781 1.984375 -21.984375 2.109375 -21.984375 L 3.8125 -21.984375 C 3.914062 -21.984375 4.066406 -21.925781 4.265625 -21.8125 C 4.460938 -21.707031 4.5625 -21.453125 4.5625 -21.046875 L 4.5625 -20.4375 L 3.78125 -20.4375 L 3.78125 -18.78125 L 6.296875 -18.78125 L 6.296875 -15.6875 L 3.546875 -15.6875 L 3.546875 -14.03125 L 4.5625 -14.03125 L 4.5625 -10.75 L 4.078125 -10.75 L 4.078125 -6.515625 L 4.5625 -6.515625 L 4.5625 -4.859375 L 4.078125 -4.859375 L 4.078125 -3.703125 L 4.5625 -3.703125 L 4.5625 -2.046875 L 4.234375 -2.046875 Z M 4.234375 -0.90625 "/></g></g></g><g fill="#ffffff" fill-opacity="1"><g transform="translate(297.918877, 175.499988)"><g><path d="M 17.734375 -0.75 C 17.359375 -0.226562 16.78125 0.03125 16 0.03125 L 14.859375 0.03125 C 14.503906 0.03125 14.203125 0.00390625 13.953125 -0.046875 C 13.828125 -0.0859375 13.703125 -0.128906 13.578125 -0.171875 C 13.453125 -0.210938 13.335938 -0.269531 13.234375 -0.34375 C 13.015625 -0.46875 12.816406 -0.664062 12.640625 -0.9375 C 12.429688 -1.195312 12.21875 -1.523438 12 -1.921875 L 11.96875 -2 L 13.0625 -2 L 11.421875 -4.9375 L 7.328125 -4.9375 L 4.484375 -10 L 8.609375 -10 L 8.234375 -10.640625 L 7.6875 -10.640625 L 4.90625 -15.578125 L 4.34375 -15.578125 L 3.578125 -16.90625 C 3.554688 -16.945312 3.535156 -16.96875 3.515625 -16.96875 C 3.503906 -16.976562 3.5 -16.984375 3.5 -16.984375 L 3.359375 -16.984375 C 3.359375 -16.984375 3.359375 -16.976562 3.359375 -16.96875 C 3.359375 -16.96875 3.359375 -16.957031 3.359375 -16.9375 L 3.359375 -10 L 2.78125 -10 L 2.78125 -6.859375 L 3.359375 -6.859375 L 3.359375 -2 L 2.40625 -2 L 2.40625 -1.359375 L 3.359375 -1.359375 L 3.359375 -0.90625 C 3.359375 -0.5 3.257812 -0.238281 3.0625 -0.125 C 2.875 -0.0195312 2.722656 0.03125 2.609375 0.03125 L 1.4375 0.03125 C 1.3125 0.03125 1.148438 -0.0195312 0.953125 -0.125 C 0.765625 -0.238281 0.671875 -0.5 0.671875 -0.90625 L 0.671875 -1.359375 L -0.53125 -1.359375 L -0.53125 -2 L 0.375 -2 L 0.375 -4.9375 L -0.53125 -4.9375 L -0.53125 -10.640625 L 0.046875 -10.640625 L 0.046875 -15.578125 L -0.53125 -15.578125 L -0.53125 -17.5 L -0.140625 -17.5 L -0.140625 -18.53125 C -0.140625 -18.582031 -0.140625 -18.628906 -0.140625 -18.671875 C -0.140625 -18.722656 -0.140625 -18.773438 -0.140625 -18.828125 L -0.53125 -18.828125 C -0.507812 -19.628906 -0.410156 -20.269531 -0.234375 -20.75 L 0.609375 -20.75 C 0.703125 -20.945312 0.785156 -21.109375 0.859375 -21.234375 C 1.265625 -21.734375 1.847656 -21.984375 2.609375 -21.984375 L 3.734375 -21.984375 C 3.929688 -21.984375 4.109375 -21.976562 4.265625 -21.96875 C 4.421875 -21.957031 4.5625 -21.941406 4.6875 -21.921875 C 4.976562 -21.867188 5.226562 -21.765625 5.4375 -21.609375 C 5.613281 -21.484375 5.800781 -21.273438 6 -20.984375 C 6.03125 -20.953125 6.0625 -20.910156 6.09375 -20.859375 C 6.125 -20.816406 6.144531 -20.78125 6.15625 -20.75 L 5.046875 -20.75 C 5.109375 -20.644531 5.171875 -20.535156 5.234375 -20.421875 C 5.296875 -20.304688 5.363281 -20.175781 5.4375 -20.03125 L 6.140625 -18.828125 L 12.375 -18.828125 L 13.125 -17.5 L 6.75 -17.5 L 7.84375 -15.578125 L 9.09375 -15.578125 L 12.21875 -10 L 11.625 -10 L 13.390625 -6.859375 L 12.59375 -6.859375 L 13.609375 -5.046875 C 13.617188 -4.992188 13.644531 -4.96875 13.6875 -4.96875 L 13.8125 -4.96875 C 13.8125 -4.976562 13.8125 -4.984375 13.8125 -4.984375 C 13.8125 -4.984375 13.8125 -4.992188 13.8125 -5.015625 L 13.8125 -6.859375 L 13.96875 -6.859375 L 14.984375 -5.046875 C 15.023438 -5.003906 15.046875 -4.976562 15.046875 -4.96875 C 15.054688 -4.96875 15.0625 -4.96875 15.0625 -4.96875 L 15.234375 -4.96875 C 15.234375 -4.976562 15.234375 -4.984375 15.234375 -4.984375 C 15.234375 -4.984375 15.234375 -4.992188 15.234375 -5.015625 L 15.234375 -10.640625 L 15.8125 -10.640625 L 15.8125 -15.578125 L 15.234375 -15.578125 L 15.234375 -17.5 L 15.609375 -17.5 L 15.609375 -18.828125 L 15.234375 -18.828125 L 15.234375 -20.75 L 16.0625 -20.75 L 16.0625 -21.046875 C 16.0625 -21.472656 16.15625 -21.734375 16.34375 -21.828125 C 16.539062 -21.929688 16.691406 -21.984375 16.796875 -21.984375 L 18.34375 -21.984375 C 18.457031 -21.984375 18.609375 -21.929688 18.796875 -21.828125 C 18.984375 -21.734375 19.078125 -21.472656 19.078125 -21.046875 L 19.078125 -20.75 L 17.953125 -20.75 L 17.953125 -18.828125 L 20.296875 -18.828125 L 20.296875 -17.5 L 17.8125 -17.5 L 17.8125 -15.578125 L 19.078125 -15.578125 L 19.078125 -10 L 18.484375 -10 L 18.484375 -6.859375 L 17.6875 -6.859375 L 17.6875 -4.9375 L 19.078125 -4.9375 L 19.078125 -3.40625 C 19.078125 -2.875 19.046875 -2.40625 18.984375 -2 L 17.921875 -2 C 17.898438 -1.875 17.875 -1.757812 17.84375 -1.65625 C 17.8125 -1.550781 17.773438 -1.453125 17.734375 -1.359375 L 18.03125 -1.359375 C 18 -1.234375 17.957031 -1.117188 17.90625 -1.015625 C 17.863281 -0.921875 17.804688 -0.832031 17.734375 -0.75 Z M 17.734375 -0.75 "/></g></g></g><g fill="#ffffff" fill-opacity="1"><g transform="translate(323.139319, 175.499988)"><g><path d="M 15.953125 -1.140625 C 15.421875 -0.359375 14.65625 0.03125 13.65625 0.03125 L 5.96875 0.03125 C 4.8125 0.03125 3.804688 -0.117188 2.953125 -0.421875 C 2.390625 -0.640625 1.894531 -0.9375 1.46875 -1.3125 L 2.796875 -1.3125 C 2.566406 -1.5 2.378906 -1.691406 2.234375 -1.890625 C 2.109375 -2.054688 1.992188 -2.226562 1.890625 -2.40625 C 1.785156 -2.582031 1.6875 -2.765625 1.59375 -2.953125 L 0.265625 -2.953125 C 0.234375 -3.046875 0.191406 -3.140625 0.140625 -3.234375 C 0.0976562 -3.335938 0.0625 -3.429688 0.03125 -3.515625 L 1.6875 -3.515625 C 1.625 -3.679688 1.566406 -3.84375 1.515625 -4 C 1.460938 -4.15625 1.421875 -4.320312 1.390625 -4.5 C 1.285156 -4.988281 1.203125 -5.503906 1.140625 -6.046875 L -0.5 -6.046875 C -0.519531 -6.316406 -0.539062 -6.585938 -0.5625 -6.859375 C -0.582031 -7.140625 -0.597656 -7.429688 -0.609375 -7.734375 L 0.109375 -7.734375 C 0.109375 -7.828125 0.101562 -7.925781 0.09375 -8.03125 C 0.0820312 -8.132812 0.078125 -8.238281 0.078125 -8.34375 L 0.078125 -10.421875 L -0.609375 -10.421875 L -0.609375 -13.625 C -0.609375 -13.914062 -0.601562 -14.191406 -0.59375 -14.453125 C -0.59375 -14.722656 -0.582031 -14.984375 -0.5625 -15.234375 L -0.15625 -15.234375 C -0.144531 -15.535156 -0.117188 -15.820312 -0.078125 -16.09375 C -0.046875 -16.375 -0.0078125 -16.640625 0.03125 -16.890625 L -0.34375 -16.890625 C -0.320312 -16.972656 -0.304688 -17.0625 -0.296875 -17.15625 C -0.296875 -17.257812 -0.285156 -17.347656 -0.265625 -17.421875 C -0.179688 -17.773438 -0.0820312 -18.109375 0.03125 -18.421875 C 0.15625 -18.734375 0.285156 -19.019531 0.421875 -19.28125 L 3.015625 -19.28125 C 3.140625 -19.53125 3.300781 -19.78125 3.5 -20.03125 C 3.78125 -20.382812 4.109375 -20.6875 4.484375 -20.9375 L 1.890625 -20.9375 C 2.191406 -21.164062 2.546875 -21.363281 2.953125 -21.53125 C 3.804688 -21.832031 4.8125 -21.984375 5.96875 -21.984375 L 15.703125 -21.984375 C 15.816406 -21.984375 15.96875 -21.925781 16.15625 -21.8125 C 16.34375 -21.707031 16.4375 -21.453125 16.4375 -21.046875 L 16.4375 -20.9375 L 18.1875 -20.9375 L 18.1875 -19.28125 L 15.84375 -19.28125 L 15.84375 -18.96875 C 15.84375 -18.539062 15.742188 -18.273438 15.546875 -18.171875 C 15.347656 -18.078125 15.195312 -18.03125 15.09375 -18.03125 L 3.765625 -18.03125 C 3.472656 -18.03125 3.21875 -18.007812 3 -17.96875 C 2.78125 -17.9375 2.570312 -17.894531 2.375 -17.84375 C 2.03125 -17.695312 1.765625 -17.5 1.578125 -17.25 C 1.554688 -17.195312 1.523438 -17.140625 1.484375 -17.078125 C 1.453125 -17.015625 1.421875 -16.953125 1.390625 -16.890625 L 9.09375 -16.890625 C 8.988281 -16.671875 8.910156 -16.398438 8.859375 -16.078125 C 8.835938 -15.953125 8.816406 -15.816406 8.796875 -15.671875 C 8.785156 -15.535156 8.769531 -15.390625 8.75 -15.234375 L 2.046875 -15.234375 C 2.035156 -15.054688 2.03125 -14.875 2.03125 -14.6875 C 2.03125 -14.5 2.03125 -14.296875 2.03125 -14.078125 L 2.03125 -10.984375 L 3.328125 -10.984375 L 3.328125 -7.890625 C 3.328125 -7.878906 3.328125 -7.859375 3.328125 -7.828125 C 3.328125 -7.796875 3.328125 -7.765625 3.328125 -7.734375 L 1.5 -7.734375 C 1.5 -7.398438 1.503906 -7.09375 1.515625 -6.8125 C 1.535156 -6.539062 1.5625 -6.285156 1.59375 -6.046875 L 3.46875 -6.046875 C 3.46875 -5.984375 3.476562 -5.929688 3.5 -5.890625 C 3.5625 -5.410156 3.703125 -5.019531 3.921875 -4.71875 C 4.128906 -4.4375 4.394531 -4.242188 4.71875 -4.140625 C 5.039062 -4.015625 5.503906 -3.953125 6.109375 -3.953125 L 15.203125 -3.953125 C 15.523438 -3.953125 15.75 -4.046875 15.875 -4.234375 C 15.925781 -4.328125 15.976562 -4.472656 16.03125 -4.671875 C 16.082031 -4.867188 16.109375 -5.171875 16.109375 -5.578125 C 16.109375 -5.578125 16.101562 -5.617188 16.09375 -5.703125 C 16.082031 -5.796875 16.078125 -5.910156 16.078125 -6.046875 L 11.328125 -6.046875 C 11.328125 -6.265625 11.320312 -6.523438 11.3125 -6.828125 C 11.3125 -7.128906 11.3125 -7.429688 11.3125 -7.734375 L 15.15625 -7.734375 C 15.15625 -8.140625 15.148438 -8.503906 15.140625 -8.828125 C 15.128906 -9.148438 15.125 -9.3125 15.125 -9.3125 L 8.484375 -9.3125 C 8.378906 -9.3125 8.234375 -9.363281 8.046875 -9.46875 C 7.859375 -9.570312 7.765625 -9.835938 7.765625 -10.265625 L 7.765625 -10.421875 L 8.328125 -10.421875 L 8.328125 -10.984375 L 7.046875 -10.984375 L 7.046875 -12.296875 C 7.046875 -12.722656 7.140625 -12.988281 7.328125 -13.09375 C 7.523438 -13.195312 7.675781 -13.25 7.78125 -13.25 L 15.921875 -13.25 C 16.097656 -13.25 16.296875 -13.179688 16.515625 -13.046875 C 16.742188 -12.921875 16.859375 -12.597656 16.859375 -12.078125 L 16.859375 -10.984375 L 20.9375 -10.984375 L 20.9375 -7.734375 L 16.296875 -7.734375 L 16.296875 -6.046875 L 18.15625 -6.046875 L 18.15625 -4.9375 C 18.15625 -4.414062 18.128906 -3.941406 18.078125 -3.515625 L 15.84375 -3.515625 C 15.820312 -3.429688 15.804688 -3.335938 15.796875 -3.234375 C 15.796875 -3.140625 15.785156 -3.046875 15.765625 -2.953125 L 20.25 -2.953125 C 20.1875 -2.617188 20.109375 -2.3125 20.015625 -2.03125 C 19.929688 -1.757812 19.828125 -1.519531 19.703125 -1.3125 L 16.0625 -1.3125 C 16.019531 -1.269531 15.984375 -1.210938 15.953125 -1.140625 Z M 15.953125 -1.140625 "/></g></g></g><g fill="#ffffff" fill-opacity="1"><g transform="translate(110.104681, 212.249986)"><g><path d="M 21.015625 -21.25 C 21.015625 -21.25 21.015625 -21.242188 21.015625 -21.234375 L 20.34375 -19.609375 L 21.171875 -19.609375 L 19.078125 -14.375 L 17.25 -14.375 L 15.546875 -10.109375 L 13.046875 -10.109375 L 14.71875 -14.375 L 15.96875 -14.375 L 16.640625 -16.03125 L 18.21875 -16.03125 L 19.625 -19.609375 L 16.78125 -19.609375 L 17.4375 -21.25 L 19.421875 -21.25 L 19.578125 -21.703125 C 19.609375 -21.773438 19.625 -21.8125 19.625 -21.8125 L 17.6875 -21.8125 C 17.820312 -22.113281 18.050781 -22.265625 18.375 -22.265625 L 20.40625 -22.265625 C 20.613281 -22.265625 20.757812 -22.21875 20.84375 -22.125 C 20.925781 -22.039062 20.972656 -21.960938 20.984375 -21.890625 C 21.003906 -21.878906 21.015625 -21.851562 21.015625 -21.8125 L 21.921875 -21.8125 C 21.960938 -21.65625 21.9375 -21.46875 21.84375 -21.25 Z M 15.359375 -9.578125 L 15.578125 -10.109375 L 17.359375 -10.109375 L 17.15625 -9.578125 L 16.375 -9.578125 L 15.28125 -6.859375 L 12.96875 -6.859375 L 12.296875 -5.203125 L 15.390625 -5.203125 L 14.40625 -2.78125 C 14.3125 -2.53125 14.210938 -2.304688 14.109375 -2.109375 L 12.265625 -2.109375 C 12.128906 -1.804688 11.984375 -1.550781 11.828125 -1.34375 C 11.679688 -1.144531 11.535156 -0.972656 11.390625 -0.828125 C 11.296875 -0.734375 11.160156 -0.644531 10.984375 -0.5625 C 10.953125 -0.519531 10.898438 -0.484375 10.828125 -0.453125 L 12.671875 -0.453125 C 12.316406 -0.242188 11.960938 -0.109375 11.609375 -0.046875 C 11.234375 -0.109375 10.867188 -0.242188 10.515625 -0.453125 L 9.328125 -0.453125 C 8.660156 -0.847656 8.191406 -1.398438 7.921875 -2.109375 L 11.953125 -2.109375 C 11.910156 -2.179688 11.875 -2.269531 11.84375 -2.375 C 11.820312 -2.425781 11.773438 -2.523438 11.703125 -2.671875 L 8.859375 -2.671875 C 8.816406 -2.703125 8.796875 -2.738281 8.796875 -2.78125 L 7.8125 -5.203125 L 6.671875 -5.203125 L 4.875 -9.578125 L 7.4375 -9.578125 L 7.234375 -10.109375 L 4.671875 -10.109375 L 2.9375 -14.375 L 4.21875 -14.375 L 3.546875 -16.03125 L 5.09375 -16.03125 L 3.65625 -19.609375 L 0.828125 -19.609375 L 0.15625 -21.234375 C 0.15625 -21.242188 0.15625 -21.25 0.15625 -21.25 L 2.109375 -21.25 C 2.035156 -21.4375 2.015625 -21.625 2.046875 -21.8125 L 0.078125 -21.8125 C 0.078125 -21.832031 0.078125 -21.847656 0.078125 -21.859375 C 0.078125 -21.867188 0.078125 -21.878906 0.078125 -21.890625 C 0.117188 -21.953125 0.171875 -22.03125 0.234375 -22.125 C 0.304688 -22.21875 0.453125 -22.265625 0.671875 -22.265625 L 2.640625 -22.265625 C 2.960938 -22.265625 3.191406 -22.113281 3.328125 -21.8125 L 4.234375 -21.8125 C 4.234375 -21.78125 4.253906 -21.742188 4.296875 -21.703125 L 4.453125 -21.25 L 3.625 -21.25 L 4.296875 -19.609375 L 5.125 -19.609375 L 7.234375 -14.375 L 5.734375 -14.375 L 7.4375 -10.109375 L 8.9375 -10.109375 L 9.15625 -9.578125 L 8.375 -9.578125 L 9.46875 -6.859375 L 10.234375 -6.859375 L 10.90625 -5.203125 C 10.925781 -5.179688 10.941406 -5.160156 10.953125 -5.140625 C 10.960938 -5.128906 10.96875 -5.125 10.96875 -5.125 L 11.0625 -5.140625 C 11.0625 -5.140625 11.070312 -5.160156 11.09375 -5.203125 L 12.796875 -9.578125 Z M 12.21875 -5.140625 C 12.21875 -5.140625 12.21875 -5.144531 12.21875 -5.15625 C 12.21875 -5.164062 12.226562 -5.179688 12.25 -5.203125 L 12.0625 -5.203125 C 12.070312 -5.179688 12.082031 -5.160156 12.09375 -5.140625 C 12.101562 -5.128906 12.109375 -5.125 12.109375 -5.125 Z M 12.21875 -5.140625 "/></g></g></g><g fill="#ffffff" fill-opacity="1"><g transform="translate(137.564572, 212.249986)"><g><path d="M 4.234375 -0.90625 C 4.234375 -0.5 4.132812 -0.238281 3.9375 -0.125 C 3.75 -0.0195312 3.601562 0.03125 3.5 0.03125 L 1.359375 0.03125 C 1.253906 0.03125 1.101562 -0.0195312 0.90625 -0.125 C 0.707031 -0.238281 0.609375 -0.5 0.609375 -0.90625 L 0.609375 -2.046875 L 1.3125 -2.046875 L 1.3125 -3.703125 L -1.140625 -3.703125 L -1.140625 -4.859375 L 1.0625 -4.859375 L 1.0625 -6.515625 L 0.609375 -6.515625 L 0.609375 -11.3125 L 1.515625 -11.3125 L 1.515625 -14.03125 L 0.609375 -14.03125 L 0.609375 -18.21875 L 1.8125 -18.21875 L 1.8125 -18.78125 L 0.609375 -18.78125 L 0.609375 -20.4375 L 1.234375 -20.4375 L 1.234375 -21.046875 C 1.234375 -21.453125 1.347656 -21.707031 1.578125 -21.8125 C 1.804688 -21.925781 1.984375 -21.984375 2.109375 -21.984375 L 3.8125 -21.984375 C 3.914062 -21.984375 4.066406 -21.925781 4.265625 -21.8125 C 4.460938 -21.707031 4.5625 -21.453125 4.5625 -21.046875 L 4.5625 -20.4375 L 3.78125 -20.4375 L 3.78125 -18.78125 L 6.296875 -18.78125 L 6.296875 -15.6875 L 3.546875 -15.6875 L 3.546875 -14.03125 L 4.5625 -14.03125 L 4.5625 -10.75 L 4.078125 -10.75 L 4.078125 -6.515625 L 4.5625 -6.515625 L 4.5625 -4.859375 L 4.078125 -4.859375 L 4.078125 -3.703125 L 4.5625 -3.703125 L 4.5625 -2.046875 L 4.234375 -2.046875 Z M 4.234375 -0.90625 "/></g></g></g><g fill="#ffffff" fill-opacity="1"><g transform="translate(147.108886, 212.249986)"><g><path d="M 16.1875 -0.90625 C 16.1875 -0.5 16.085938 -0.238281 15.890625 -0.125 C 15.703125 -0.0195312 15.550781 0.03125 15.4375 0.03125 L 8.109375 0.03125 C 6.929688 0.03125 5.9375 -0.117188 5.125 -0.421875 C 4.832031 -0.515625 4.546875 -0.648438 4.265625 -0.828125 L 2.796875 -0.828125 C 2.660156 -0.910156 2.523438 -1 2.390625 -1.09375 C 2.253906 -1.195312 2.125 -1.300781 2 -1.40625 L 2.859375 -1.40625 C 2.785156 -1.5 2.707031 -1.582031 2.625 -1.65625 C 2.539062 -1.738281 2.46875 -1.828125 2.40625 -1.921875 C 2.164062 -2.203125 1.960938 -2.53125 1.796875 -2.90625 C 1.628906 -3.28125 1.484375 -3.691406 1.359375 -4.140625 L -1.59375 -4.140625 C -1.613281 -4.203125 -1.632812 -4.265625 -1.65625 -4.328125 C -1.675781 -4.390625 -1.691406 -4.457031 -1.703125 -4.53125 C -1.742188 -4.726562 -1.78125 -4.945312 -1.8125 -5.1875 C -1.84375 -5.425781 -1.878906 -5.671875 -1.921875 -5.921875 L 0.875 -5.921875 C 0.820312 -6.273438 0.785156 -6.65625 0.765625 -7.0625 C 0.753906 -7.476562 0.75 -7.90625 0.75 -8.34375 L 0.75 -8.796875 L -0.453125 -8.796875 L -0.453125 -9.390625 L 0.796875 -9.390625 L 0.796875 -13.921875 L 0.046875 -13.921875 L 0.046875 -15.703125 L 0.5 -15.703125 L 0.5 -16.90625 L -1.390625 -16.90625 L -1.390625 -18.703125 L 0.828125 -18.703125 L 0.828125 -20.453125 L 0.046875 -20.453125 L 0.046875 -21.046875 C 0.046875 -21.472656 0.144531 -21.734375 0.34375 -21.828125 C 0.539062 -21.929688 0.703125 -21.984375 0.828125 -21.984375 L 2.640625 -21.984375 C 2.765625 -21.984375 2.921875 -21.929688 3.109375 -21.828125 C 3.296875 -21.734375 3.390625 -21.472656 3.390625 -21.046875 L 3.390625 -20.453125 L 4 -20.453125 L 4 -15.203125 L 14.109375 -15.203125 L 14.109375 -14.421875 L 4 -14.421875 L 4 -7.890625 C 4 -7.085938 4.050781 -6.429688 4.15625 -5.921875 L 3.65625 -5.921875 C 3.65625 -5.898438 3.65625 -5.890625 3.65625 -5.890625 C 3.726562 -5.429688 3.867188 -5.039062 4.078125 -4.71875 C 4.179688 -4.59375 4.296875 -4.476562 4.421875 -4.375 C 4.546875 -4.269531 4.695312 -4.191406 4.875 -4.140625 L 5.390625 -4.140625 C 5.710938 -4.015625 6.175781 -3.953125 6.78125 -3.953125 L 15.4375 -3.953125 C 15.550781 -3.953125 15.703125 -3.894531 15.890625 -3.78125 C 16.085938 -3.675781 16.1875 -3.421875 16.1875 -3.015625 Z M 16.1875 -0.90625 "/></g></g></g><g fill="#ffffff" fill-opacity="1"><g transform="translate(168.836855, 212.249986)"><g><path d="M 16.1875 -0.90625 C 16.1875 -0.5 16.085938 -0.238281 15.890625 -0.125 C 15.703125 -0.0195312 15.550781 0.03125 15.4375 0.03125 L 8.109375 0.03125 C 6.929688 0.03125 5.9375 -0.117188 5.125 -0.421875 C 4.832031 -0.515625 4.546875 -0.648438 4.265625 -0.828125 L 2.796875 -0.828125 C 2.660156 -0.910156 2.523438 -1 2.390625 -1.09375 C 2.253906 -1.195312 2.125 -1.300781 2 -1.40625 L 2.859375 -1.40625 C 2.785156 -1.5 2.707031 -1.582031 2.625 -1.65625 C 2.539062 -1.738281 2.46875 -1.828125 2.40625 -1.921875 C 2.164062 -2.203125 1.960938 -2.53125 1.796875 -2.90625 C 1.628906 -3.28125 1.484375 -3.691406 1.359375 -4.140625 L -1.59375 -4.140625 C -1.613281 -4.203125 -1.632812 -4.265625 -1.65625 -4.328125 C -1.675781 -4.390625 -1.691406 -4.457031 -1.703125 -4.53125 C -1.742188 -4.726562 -1.78125 -4.945312 -1.8125 -5.1875 C -1.84375 -5.425781 -1.878906 -5.671875 -1.921875 -5.921875 L 0.875 -5.921875 C 0.820312 -6.273438 0.785156 -6.65625 0.765625 -7.0625 C 0.753906 -7.476562 0.75 -7.90625 0.75 -8.34375 L 0.75 -8.796875 L -0.453125 -8.796875 L -0.453125 -9.390625 L 0.796875 -9.390625 L 0.796875 -13.921875 L 0.046875 -13.921875 L 0.046875 -15.703125 L 0.5 -15.703125 L 0.5 -16.90625 L -1.390625 -16.90625 L -1.390625 -18.703125 L 0.828125 -18.703125 L 0.828125 -20.453125 L 0.046875 -20.453125 L 0.046875 -21.046875 C 0.046875 -21.472656 0.144531 -21.734375 0.34375 -21.828125 C 0.539062 -21.929688 0.703125 -21.984375 0.828125 -21.984375 L 2.640625 -21.984375 C 2.765625 -21.984375 2.921875 -21.929688 3.109375 -21.828125 C 3.296875 -21.734375 3.390625 -21.472656 3.390625 -21.046875 L 3.390625 -20.453125 L 4 -20.453125 L 4 -15.203125 L 14.109375 -15.203125 L 14.109375 -14.421875 L 4 -14.421875 L 4 -7.890625 C 4 -7.085938 4.050781 -6.429688 4.15625 -5.921875 L 3.65625 -5.921875 C 3.65625 -5.898438 3.65625 -5.890625 3.65625 -5.890625 C 3.726562 -5.429688 3.867188 -5.039062 4.078125 -4.71875 C 4.179688 -4.59375 4.296875 -4.476562 4.421875 -4.375 C 4.546875 -4.269531 4.695312 -4.191406 4.875 -4.140625 L 5.390625 -4.140625 C 5.710938 -4.015625 6.175781 -3.953125 6.78125 -3.953125 L 15.4375 -3.953125 C 15.550781 -3.953125 15.703125 -3.894531 15.890625 -3.78125 C 16.085938 -3.675781 16.1875 -3.421875 16.1875 -3.015625 Z M 16.1875 -0.90625 "/></g></g></g><g fill="#ffffff" fill-opacity="1"><g transform="translate(190.564824, 212.249986)"><g><path d="M 19.875 -0.375 C 19.851562 -0.300781 19.800781 -0.210938 19.71875 -0.109375 C 19.644531 -0.015625 19.507812 0.03125 19.3125 0.03125 L 17.34375 0.03125 C 17.019531 0.03125 16.785156 -0.128906 16.640625 -0.453125 L 17.84375 -0.453125 C 17.84375 -0.472656 17.835938 -0.488281 17.828125 -0.5 C 17.816406 -0.519531 17.8125 -0.539062 17.8125 -0.5625 L 17.625 -0.984375 L 16.40625 -0.984375 L 15.734375 -2.671875 L 16.4375 -2.671875 L 14.984375 -6.21875 L 14.328125 -6.21875 L 11.953125 -12.140625 L 13.171875 -12.140625 L 12.96875 -12.703125 L 11.703125 -12.703125 L 10.640625 -15.390625 L 11.203125 -15.390625 L 10.53125 -17.0625 L 10.375 -17.0625 C 10.375 -17.0625 10.375 -17.054688 10.375 -17.046875 L 10.15625 -16.5625 L 9.96875 -17.0625 C 9.957031 -17.101562 9.945312 -17.125 9.9375 -17.125 C 9.925781 -17.125 9.921875 -17.125 9.921875 -17.125 L 9.8125 -17.125 C 9.8125 -17.125 9.8125 -17.117188 9.8125 -17.109375 C 9.8125 -17.097656 9.800781 -17.078125 9.78125 -17.046875 L 9.125 -15.390625 L 8.40625 -15.390625 L 7.328125 -12.703125 L 8.0625 -12.703125 L 7.84375 -12.140625 L 6.375 -8.40625 L 9.65625 -8.40625 C 9.6875 -8.40625 9.726562 -8.398438 9.78125 -8.390625 C 9.84375 -8.378906 9.878906 -8.375 9.890625 -8.375 C 9.960938 -8.351562 10.035156 -8.316406 10.109375 -8.265625 C 10.109375 -8.265625 10.117188 -8.265625 10.140625 -8.265625 C 10.296875 -8.140625 10.390625 -8.015625 10.421875 -7.890625 L 9.015625 -7.890625 C 9.015625 -7.890625 9.015625 -7.882812 9.015625 -7.875 L 9.6875 -6.21875 L 11.09375 -6.21875 L 11.390625 -5.5 C 11.515625 -5.207031 11.488281 -4.945312 11.3125 -4.71875 C 11.144531 -4.46875 10.910156 -4.34375 10.609375 -4.34375 L 4.75 -4.34375 L 4.078125 -2.671875 L 3.234375 -2.671875 L 2.59375 -0.984375 L 3.4375 -0.984375 L 3.25 -0.53125 C 3.238281 -0.507812 3.234375 -0.492188 3.234375 -0.484375 C 3.234375 -0.484375 3.222656 -0.472656 3.203125 -0.453125 L 2.296875 -0.453125 C 2.117188 -0.128906 1.878906 0.03125 1.578125 0.03125 L -0.421875 0.03125 C -0.640625 0.03125 -0.785156 -0.015625 -0.859375 -0.109375 C -0.941406 -0.210938 -1.003906 -0.300781 -1.046875 -0.375 C -1.046875 -0.394531 -1.046875 -0.40625 -1.046875 -0.40625 C -1.046875 -0.414062 -1.046875 -0.429688 -1.046875 -0.453125 L 0.15625 -0.453125 C 0.144531 -0.597656 0.171875 -0.773438 0.234375 -0.984375 L -0.953125 -0.984375 C -0.953125 -1.003906 -0.953125 -1.015625 -0.953125 -1.015625 L -0.296875 -2.671875 L 0.375 -2.671875 L 1.8125 -6.21875 L 1.125 -6.21875 L 1.78125 -7.890625 L 3.5 -12.140625 L 4.75 -12.140625 L 4.96875 -12.703125 L 3.734375 -12.703125 L 4.828125 -15.390625 L 5.390625 -15.390625 L 6.046875 -17.0625 L 5.5 -17.0625 L 6.453125 -19.5 C 6.503906 -19.625 6.554688 -19.738281 6.609375 -19.84375 C 6.660156 -19.945312 6.707031 -20.050781 6.75 -20.15625 L 7.546875 -20.15625 C 7.847656 -20.75 8.140625 -21.175781 8.421875 -21.4375 C 8.484375 -21.476562 8.546875 -21.523438 8.609375 -21.578125 C 8.679688 -21.628906 8.753906 -21.671875 8.828125 -21.703125 C 8.859375 -21.722656 8.890625 -21.742188 8.921875 -21.765625 C 8.953125 -21.785156 8.972656 -21.800781 8.984375 -21.8125 L 8.21875 -21.8125 C 8.34375 -21.882812 8.46875 -21.945312 8.59375 -22 C 8.601562 -22 8.609375 -22 8.609375 -22 C 8.734375 -22.070312 8.859375 -22.117188 8.984375 -22.140625 C 9.023438 -22.160156 9.070312 -22.171875 9.125 -22.171875 C 9.175781 -22.179688 9.273438 -22.207031 9.421875 -22.25 C 9.503906 -22.257812 9.582031 -22.265625 9.65625 -22.265625 C 9.726562 -22.265625 9.800781 -22.265625 9.875 -22.265625 C 9.957031 -22.265625 10.035156 -22.265625 10.109375 -22.265625 C 10.191406 -22.265625 10.269531 -22.257812 10.34375 -22.25 C 10.457031 -22.207031 10.539062 -22.1875 10.59375 -22.1875 C 10.625 -22.175781 10.65625 -22.171875 10.6875 -22.171875 C 10.726562 -22.171875 10.765625 -22.160156 10.796875 -22.140625 C 10.847656 -22.117188 10.898438 -22.097656 10.953125 -22.078125 C 11.015625 -22.066406 11.0625 -22.050781 11.09375 -22.03125 C 11.164062 -22 11.203125 -21.984375 11.203125 -21.984375 C 11.253906 -21.960938 11.3125 -21.9375 11.375 -21.90625 C 11.4375 -21.882812 11.484375 -21.851562 11.515625 -21.8125 C 12.191406 -21.425781 12.664062 -20.875 12.9375 -20.15625 L 10.40625 -20.15625 C 10.414062 -20.101562 10.429688 -20.054688 10.453125 -20.015625 C 10.472656 -19.972656 10.492188 -19.929688 10.515625 -19.890625 C 10.523438 -19.835938 10.566406 -19.742188 10.640625 -19.609375 L 11.78125 -19.609375 C 11.78125 -19.566406 11.800781 -19.53125 11.84375 -19.5 L 12.796875 -17.0625 L 14.21875 -17.0625 L 14.890625 -15.390625 L 14.15625 -15.390625 L 15.25 -12.703125 L 15.96875 -12.703125 L 17.46875 -9.015625 L 17.921875 -7.890625 L 16.515625 -7.890625 L 17.171875 -6.21875 L 18.609375 -6.21875 L 20.0625 -2.671875 L 19.203125 -2.671875 L 19.875 -1.015625 C 19.875 -1.015625 19.875 -1.003906 19.875 -0.984375 L 20.71875 -0.984375 C 20.789062 -0.804688 20.8125 -0.628906 20.78125 -0.453125 L 19.875 -0.453125 C 19.875 -0.429688 19.875 -0.410156 19.875 -0.390625 C 19.875 -0.378906 19.875 -0.375 19.875 -0.375 Z M 19.875 -0.375 "/></g></g></g><g fill="#ffffff" fill-opacity="1"><g transform="translate(218.078032, 212.249986)"><g><path d="M 15.953125 -1.140625 C 15.421875 -0.359375 14.65625 0.03125 13.65625 0.03125 L 5.96875 0.03125 C 4.8125 0.03125 3.804688 -0.117188 2.953125 -0.421875 C 2.390625 -0.640625 1.894531 -0.9375 1.46875 -1.3125 L 2.796875 -1.3125 C 2.566406 -1.5 2.378906 -1.691406 2.234375 -1.890625 C 2.109375 -2.054688 1.992188 -2.226562 1.890625 -2.40625 C 1.785156 -2.582031 1.6875 -2.765625 1.59375 -2.953125 L 0.265625 -2.953125 C 0.234375 -3.046875 0.191406 -3.140625 0.140625 -3.234375 C 0.0976562 -3.335938 0.0625 -3.429688 0.03125 -3.515625 L 1.6875 -3.515625 C 1.625 -3.679688 1.566406 -3.84375 1.515625 -4 C 1.460938 -4.15625 1.421875 -4.320312 1.390625 -4.5 C 1.285156 -4.988281 1.203125 -5.503906 1.140625 -6.046875 L -0.5 -6.046875 C -0.519531 -6.316406 -0.539062 -6.585938 -0.5625 -6.859375 C -0.582031 -7.140625 -0.597656 -7.429688 -0.609375 -7.734375 L 0.109375 -7.734375 C 0.109375 -7.828125 0.101562 -7.925781 0.09375 -8.03125 C 0.0820312 -8.132812 0.078125 -8.238281 0.078125 -8.34375 L 0.078125 -10.421875 L -0.609375 -10.421875 L -0.609375 -13.625 C -0.609375 -13.914062 -0.601562 -14.191406 -0.59375 -14.453125 C -0.59375 -14.722656 -0.582031 -14.984375 -0.5625 -15.234375 L -0.15625 -15.234375 C -0.144531 -15.535156 -0.117188 -15.820312 -0.078125 -16.09375 C -0.046875 -16.375 -0.0078125 -16.640625 0.03125 -16.890625 L -0.34375 -16.890625 C -0.320312 -16.972656 -0.304688 -17.0625 -0.296875 -17.15625 C -0.296875 -17.257812 -0.285156 -17.347656 -0.265625 -17.421875 C -0.179688 -17.773438 -0.0820312 -18.109375 0.03125 -18.421875 C 0.15625 -18.734375 0.285156 -19.019531 0.421875 -19.28125 L 3.015625 -19.28125 C 3.140625 -19.53125 3.300781 -19.78125 3.5 -20.03125 C 3.78125 -20.382812 4.109375 -20.6875 4.484375 -20.9375 L 1.890625 -20.9375 C 2.191406 -21.164062 2.546875 -21.363281 2.953125 -21.53125 C 3.804688 -21.832031 4.8125 -21.984375 5.96875 -21.984375 L 15.703125 -21.984375 C 15.816406 -21.984375 15.96875 -21.925781 16.15625 -21.8125 C 16.34375 -21.707031 16.4375 -21.453125 16.4375 -21.046875 L 16.4375 -20.9375 L 18.1875 -20.9375 L 18.1875 -19.28125 L 15.84375 -19.28125 L 15.84375 -18.96875 C 15.84375 -18.539062 15.742188 -18.273438 15.546875 -18.171875 C 15.347656 -18.078125 15.195312 -18.03125 15.09375 -18.03125 L 3.765625 -18.03125 C 3.472656 -18.03125 3.21875 -18.007812 3 -17.96875 C 2.78125 -17.9375 2.570312 -17.894531 2.375 -17.84375 C 2.03125 -17.695312 1.765625 -17.5 1.578125 -17.25 C 1.554688 -17.195312 1.523438 -17.140625 1.484375 -17.078125 C 1.453125 -17.015625 1.421875 -16.953125 1.390625 -16.890625 L 9.09375 -16.890625 C 8.988281 -16.671875 8.910156 -16.398438 8.859375 -16.078125 C 8.835938 -15.953125 8.816406 -15.816406 8.796875 -15.671875 C 8.785156 -15.535156 8.769531 -15.390625 8.75 -15.234375 L 2.046875 -15.234375 C 2.035156 -15.054688 2.03125 -14.875 2.03125 -14.6875 C 2.03125 -14.5 2.03125 -14.296875 2.03125 -14.078125 L 2.03125 -10.984375 L 3.328125 -10.984375 L 3.328125 -7.890625 C 3.328125 -7.878906 3.328125 -7.859375 3.328125 -7.828125 C 3.328125 -7.796875 3.328125 -7.765625 3.328125 -7.734375 L 1.5 -7.734375 C 1.5 -7.398438 1.503906 -7.09375 1.515625 -6.8125 C 1.535156 -6.539062 1.5625 -6.285156 1.59375 -6.046875 L 3.46875 -6.046875 C 3.46875 -5.984375 3.476562 -5.929688 3.5 -5.890625 C 3.5625 -5.410156 3.703125 -5.019531 3.921875 -4.71875 C 4.128906 -4.4375 4.394531 -4.242188 4.71875 -4.140625 C 5.039062 -4.015625 5.503906 -3.953125 6.109375 -3.953125 L 15.203125 -3.953125 C 15.523438 -3.953125 15.75 -4.046875 15.875 -4.234375 C 15.925781 -4.328125 15.976562 -4.472656 16.03125 -4.671875 C 16.082031 -4.867188 16.109375 -5.171875 16.109375 -5.578125 C 16.109375 -5.578125 16.101562 -5.617188 16.09375 -5.703125 C 16.082031 -5.796875 16.078125 -5.910156 16.078125 -6.046875 L 11.328125 -6.046875 C 11.328125 -6.265625 11.320312 -6.523438 11.3125 -6.828125 C 11.3125 -7.128906 11.3125 -7.429688 11.3125 -7.734375 L 15.15625 -7.734375 C 15.15625 -8.140625 15.148438 -8.503906 15.140625 -8.828125 C 15.128906 -9.148438 15.125 -9.3125 15.125 -9.3125 L 8.484375 -9.3125 C 8.378906 -9.3125 8.234375 -9.363281 8.046875 -9.46875 C 7.859375 -9.570312 7.765625 -9.835938 7.765625 -10.265625 L 7.765625 -10.421875 L 8.328125 -10.421875 L 8.328125 -10.984375 L 7.046875 -10.984375 L 7.046875 -12.296875 C 7.046875 -12.722656 7.140625 -12.988281 7.328125 -13.09375 C 7.523438 -13.195312 7.675781 -13.25 7.78125 -13.25 L 15.921875 -13.25 C 16.097656 -13.25 16.296875 -13.179688 16.515625 -13.046875 C 16.742188 -12.921875 16.859375 -12.597656 16.859375 -12.078125 L 16.859375 -10.984375 L 20.9375 -10.984375 L 20.9375 -7.734375 L 16.296875 -7.734375 L 16.296875 -6.046875 L 18.15625 -6.046875 L 18.15625 -4.9375 C 18.15625 -4.414062 18.128906 -3.941406 18.078125 -3.515625 L 15.84375 -3.515625 C 15.820312 -3.429688 15.804688 -3.335938 15.796875 -3.234375 C 15.796875 -3.140625 15.785156 -3.046875 15.765625 -2.953125 L 20.25 -2.953125 C 20.1875 -2.617188 20.109375 -2.3125 20.015625 -2.03125 C 19.929688 -1.757812 19.828125 -1.519531 19.703125 -1.3125 L 16.0625 -1.3125 C 16.019531 -1.269531 15.984375 -1.210938 15.953125 -1.140625 Z M 15.953125 -1.140625 "/></g></g></g><g fill="#ffffff" fill-opacity="1"><g transform="translate(242.472005, 212.249986)"><g><path d="M 17.234375 -2.046875 L 17.234375 -1.515625 L 16.328125 -1.515625 L 16.328125 -0.90625 C 16.328125 -0.625 16.269531 -0.414062 16.15625 -0.28125 C 16.050781 -0.144531 15.9375 -0.0625 15.8125 -0.03125 L 7.015625 -0.03125 C 6.429688 -0.03125 5.882812 -0.0625 5.375 -0.125 C 4.863281 -0.195312 4.40625 -0.316406 4 -0.484375 C 3.675781 -0.585938 3.375 -0.726562 3.09375 -0.90625 C 2.820312 -1.082031 2.566406 -1.285156 2.328125 -1.515625 L 3.546875 -1.515625 L 3.203125 -1.890625 C 3.179688 -1.929688 3.160156 -1.960938 3.140625 -1.984375 C 3.128906 -2.015625 3.113281 -2.035156 3.09375 -2.046875 L 1.859375 -2.046875 C 1.628906 -2.390625 1.421875 -2.769531 1.234375 -3.1875 C 1.046875 -3.601562 0.898438 -4.0625 0.796875 -4.5625 L 2.15625 -4.5625 C 2.050781 -5.070312 1.972656 -5.625 1.921875 -6.21875 L -0.71875 -6.21875 C -0.738281 -6.46875 -0.753906 -6.710938 -0.765625 -6.953125 C -0.785156 -7.203125 -0.796875 -7.472656 -0.796875 -7.765625 L -0.828125 -7.890625 L -0.796875 -8.875 L 1.28125 -8.875 L 1.28125 -9.421875 L 0.484375 -9.421875 L 0.5 -11.25 C 0.5625 -11.5 0.65625 -11.722656 0.78125 -11.921875 C 1.113281 -12.503906 1.628906 -12.867188 2.328125 -13.015625 L 15.546875 -13.046875 C 15.648438 -13.046875 15.800781 -12.988281 16 -12.875 C 16.195312 -12.769531 16.296875 -12.515625 16.296875 -12.109375 L 16.296875 -10 C 16.296875 -9.75 16.25 -9.554688 16.15625 -9.421875 L 16.9375 -9.421875 C 16.863281 -9.296875 16.769531 -9.210938 16.65625 -9.171875 C 16.539062 -9.140625 16.4375 -9.125 16.34375 -9.125 L 4.421875 -9.125 L 4.421875 -8.875 L 3.625 -8.875 C 3.625 -8.71875 3.625 -8.5 3.625 -8.21875 C 3.625 -7.945312 3.617188 -7.703125 3.609375 -7.484375 C 3.597656 -7.273438 3.59375 -7.171875 3.59375 -7.171875 L 3.65625 -6.6875 C 3.6875 -6.53125 3.726562 -6.375 3.78125 -6.21875 L 4.59375 -6.21875 C 4.625 -6.09375 4.664062 -5.972656 4.71875 -5.859375 C 4.769531 -5.742188 4.820312 -5.640625 4.875 -5.546875 C 5.09375 -5.273438 5.367188 -5.082031 5.703125 -4.96875 C 5.878906 -4.90625 6.082031 -4.859375 6.3125 -4.828125 C 6.550781 -4.796875 6.8125 -4.78125 7.09375 -4.78125 L 7.765625 -4.78125 C 7.867188 -4.757812 7.976562 -4.75 8.09375 -4.75 C 8.207031 -4.75 8.328125 -4.75 8.453125 -4.75 L 16.71875 -4.75 C 16.84375 -4.707031 16.941406 -4.644531 17.015625 -4.5625 L 16 -4.5625 C 16.09375 -4.488281 16.164062 -4.394531 16.21875 -4.28125 C 16.269531 -4.164062 16.296875 -4.007812 16.296875 -3.8125 L 16.296875 -2.046875 Z M -0.5625 -21.078125 C -0.5625 -21.492188 -0.46875 -21.753906 -0.28125 -21.859375 C -0.09375 -21.972656 0.0625 -22.03125 0.1875 -22.03125 L 14.1875 -22.03125 C 14.289062 -22.03125 14.441406 -21.972656 14.640625 -21.859375 C 14.835938 -21.753906 14.9375 -21.5 14.9375 -21.09375 L 14.9375 -20.984375 L 16.25 -20.984375 L 16.25 -20.453125 L 14.9375 -20.453125 L 14.9375 -18.984375 C 14.9375 -18.953125 14.929688 -18.921875 14.921875 -18.890625 C 14.910156 -18.867188 14.90625 -18.835938 14.90625 -18.796875 L 16.25 -18.796875 C 16.207031 -18.484375 16.097656 -18.28125 15.921875 -18.1875 C 15.742188 -18.101562 15.609375 -18.0625 15.515625 -18.0625 L 0.53125 -18.078125 C 0.425781 -18.078125 0.285156 -18.117188 0.109375 -18.203125 C -0.0664062 -18.285156 -0.175781 -18.484375 -0.21875 -18.796875 L -0.53125 -18.796875 C -0.550781 -18.835938 -0.5625 -18.898438 -0.5625 -18.984375 L -0.5625 -20.453125 L 1.09375 -20.453125 L 1.09375 -20.984375 L -0.5625 -20.984375 Z M -0.5625 -21.078125 "/></g></g></g></svg>